<svg viewBox="0 0 1024 1024" xmlns="http://www.w3.org/2000/svg"><path d="M515.067 40.362C297.14 178.804 139.41 560.375 139.41 1006.312h749.385c0-445.937-155.803-827.508-373.728-965.95zM301.78 526.452l36.66 30.652-12.56-70.334c14.72-21.923 30.394-41.338 46.873-57.944l38.424 54.665 7.885-92.443c18.788-11.92 38.32-20.38 58.42-25.055L514.1 438.38l36.617-72.393c19.967 4.644 39.375 13.028 58.047 24.822l8.27 96.942 40.172-57.154c15.84 16.21 30.927 35.025 45.124 56.17l-12.56 70.336 36.664-30.655c48.743 88.506 84.077 206.99 99 341.262-20.032-64.297-53.075-120.777-95.205-164.665l8.014-71.506-51.195 33.36c-12.182-9.05-24.878-17.172-38.02-24.286l-6.65-81.788-52.5 57.623c-14.597-4.145-29.563-7.116-44.828-8.83l-30.966-66.38-30.967 66.382c-16.265 1.83-32.19 5.083-47.69 9.662l-49.6-54.442-6.308 77.587c-13.265 7.157-26.073 15.34-38.36 24.466l-51.192-33.358 8.015 71.503c-42.124 43.883-75.165 100.35-95.2 164.634C217.708 733.42 253.042 614.95 301.78 526.45z"/></svg>